<mxfile host="app.diagrams.net" agent="Mozilla/5.0 (Macintosh; Intel Mac OS X 10_15_7) AppleWebKit/605.1.15 (KHTML, like Gecko) Version/18.0 Safari/605.1.15" version="28.0.7">
  <diagram name="第 1 页" id="PM8zUjVqR83_DRpZhc5h">
    <mxGraphModel dx="946" dy="540" grid="1" gridSize="10" guides="1" tooltips="1" connect="1" arrows="1" fold="1" page="1" pageScale="1" pageWidth="827" pageHeight="1169" math="0" shadow="0">
      <root>
        <mxCell id="0" />
        <mxCell id="1" parent="0" />
        <mxCell id="DURLl0zLTxqEiJGifbQc-5" style="edgeStyle=orthogonalEdgeStyle;rounded=0;orthogonalLoop=1;jettySize=auto;html=1;exitX=1;exitY=0.5;exitDx=0;exitDy=0;fillColor=#f5f5f5;strokeColor=#666666;" edge="1" parent="1" source="DURLl0zLTxqEiJGifbQc-2">
          <mxGeometry relative="1" as="geometry">
            <mxPoint x="360" y="420" as="targetPoint" />
          </mxGeometry>
        </mxCell>
        <mxCell id="DURLl0zLTxqEiJGifbQc-2" value="" style="shape=image;imageAspect=0;aspect=fixed;verticalLabelPosition=bottom;verticalAlign=top;image=data:image/svg+xml,PHN2ZyB4bWxucz0iaHR0cDovL3d3dy53My5vcmcvMjAwMC9zdmciIHZlcnNpb249IjEuMSIgdmlld0JveD0iOTMuMDkxMjA5NDExNjIxMSA5My4wODg1ODQ4OTk5MDIzNCA4MzYuMTg3ODY2MjEwOTM3NSA4MzUuNjQ3MTU1NzYxNzE4OCIgaGVpZ2h0PSIxNjMuMjEyMzM1MTA5NzEwNyIgd2lkdGg9IjE2My4zMTc5NDI2MTkzMjM3MyIgY2xhc3M9Imljb24iPjxwYXRoIGZpbGw9IiM2OTZGODUiIGQ9Ik01MDkuOTUyIDE2MS41MTI3MjdjMTQ4Ljk0NTQ1NS04Mi44NTA5MDkgMzAwLjczMDE4Mi05MS4yMjkwOTEgMzcxLjQ3OTI3My0yMC45NDU0NTRzNjIuMzI0MzY0IDIyMS41MDk4MTgtMjAuNTI2NTQ2IDM3MC41MDE4MThoLTAuNDY1NDU0YTQyOS4zMzUyNzMgNDI5LjMzNTI3MyAwIDAgMSA2NS4xNjM2MzYgMjg0LjM5MjcyNyAxNjguNzI3MjczIDE2OC43MjcyNzMgMCAwIDEtNDQuNjgzNjM2IDg1LjY0MzYzNyAxNzMuNzU0MTgyIDE3My43NTQxODIgMCAwIDEtODYuMTA5MDkxIDQ0LjY4MzYzNiA0MzUuNjY1NDU1IDQzNS42NjU0NTUgMCAwIDEtMjg1LjI3NzA5MS02NS42NzU2MzYgNDMwLjczMTYzNiA0MzAuNzMxNjM2IDAgMCAxLTI4Mi41MzA5MDkgNjMuODEzODE4IDE3Mi4yMTgxODIgMTcyLjIxODE4MiAwIDAgMS04Ni4xMDkwOTEtNDQuNjgzNjM3Yy03MC4yODM2MzYtNjkuODE4MTgyLTYyLjM3MDkwOS0yMjAuMjA2NTQ1IDE5LjUwMjU0NS0zNjguMTc0NTQ1LTgxLjk2NjU0NS0xNDguNDgtODkuNzg2MTgyLTI5OC4zMDk4MTgtMTkuNTAyNTQ1LTM2OC42ODY1NDZzMjIwLjYyNTQ1NS02Mi4zMjQzNjQgMzY5LjA1ODkwOSAxOS4xMzAxODJ6IG0yOTEuODg2NTQ1IDQ0MC43ODU0NTVhOTAxLjgxODE4MiA5MDEuODE4MTgyIDAgMCAxLTkyLjE2IDEwNi41ODkwOTEgOTM0LjAyNzYzNiA5MzQuMDI3NjM2IDAgMCAxLTEwOC45MTYzNjMgOTMuNjAyOTA5IDU4Ni44OTE2MzYgNTg2Ljg5MTYzNiAwIDAgMCA1OC42MDA3MjcgMjEuNDEwOTA5Yzc0LjkzODE4MiAyMi4zNDE4MTggMTI3LjA2OTA5MSAxOS41MDI1NDUgMTU1LjUwODM2NC04Ljg0MzYzNmwtMC40NjU0NTUgMC44ODQzNjNjMjguODExNjM2LTI4LjM5MjcyNyAzMS42OTc0NTUtODAuNTIzNjM2IDguODQzNjM3LTE1NS41MDgzNjNhNTQ2LjQ0MzYzNiA1NDYuNDQzNjM2IDAgMCAwLTIxLjQxMDkxLTU4LjEzNTI3M3ogbS01ODIuNzQ5MDktMC40NjU0NTVhNTM5LjkyNzI3MyA1MzkuOTI3MjczIDAgMCAwLTIwLjQzMzQ1NSA1NS44NTQ1NDZjLTIyLjI5NTI3MyA3NS4zNTcwOTEtMTkuNTQ5MDkxIDEyNy4wMjI1NDUgOC43OTcwOTEgMTU1LjM2ODcyN3M4MC4xNTEyNzMgMzEuNjk3NDU1IDE1NS41MDgzNjQgOC45MzY3MjdoLTAuNTU4NTQ2YTUzOS45MjcyNzMgNTM5LjkyNzI3MyAwIDAgMCA1NS44NTQ1NDYtMjAuNTI2NTQ1IDk2Ny40MDA3MjcgOTY3LjQwMDcyNyAwIDAgMS0xOTkuMjE0NTQ2LTE5OS43MjY1NDZ6IG0yOTAuOTA5MDktMzMyLjc1MzQ1NGE4NTEuNzgxODE4IDg1MS43ODE4MTggMCAwIDAtMTMxLjI1ODE4MSAxMDguNDA0MzYzIDgyMy4yOTYgODIzLjI5NiAwIDAgMC0xMDkuODQ3MjczIDEzMy4xMiA4MjMuODU0NTQ1IDgyMy44NTQ1NDUgMCAwIDAgMTA5Ljg0NzI3MyAxMzMuMTJ2LTAuODg0MzYzYTg1Mi4yOTM4MTggODUyLjI5MzgxOCAwIDAgMCAxMzEuMjExNjM2IDEwOC4zNTc4MTggODQ2Ljc1NDkwOSA4NDYuNzU0OTA5IDAgMCAwIDEzMy41Mzg5MDktMTA5LjgwMDcyNyA4NTYuNDM2MzY0IDg1Ni40MzYzNjQgMCAwIDAgMTA4Ljk2MjkwOS0xMzEuMjU4MTgyIDg1Mi44NTIzNjQgODUyLjg1MjM2NCAwIDAgMC0xMDguOTYyOTA5LTEzMS4yMTE2MzcgODI5Ljk5ODU0NSA4MjkuOTk4NTQ1IDAgMCAwLTEzMy41Mzg5MDktMTA5Ljg0NzI3MnpNNTAzLjk5NDE4MiA0MTguOTA5MDkxYTk0LjM0NzYzNiA5NC4zNDc2MzYgMCAxIDEtMzUuODQgMTAuNzA1NDU0IDkyLjgxMTYzNiA5Mi44MTE2MzYgMCAwIDEgMzUuODQtMTAuNzA1NDU0eiBtMzEwLjg3NzA5MS0yMTIuMzQwMzY0Yy0yOC4yNTMwOTEtMjguMjk5NjM2LTgwLjE1MTI3My0zMS41NTc4MTgtMTU1LjUwODM2NC04Ljc1MDU0NWE1OTEuNTkyNzI3IDU5MS41OTI3MjcgMCAwIDAtNTguNjAwNzI3IDIxLjg3NjM2MyA5MzMuNzk0OTA5IDkzMy43OTQ5MDkgMCAwIDEgMTA4Ljg2OTgxOCA5My41NTYzNjQgOTQ3LjA2MDM2NCA5NDcuMDYwMzY0IDAgMCAxIDkyLjcxODU0NSAxMDcuMDU0NTQ2IDU0NS4zMjY1NDUgNTQ1LjMyNjU0NSAwIDAgMCAyMS40MTA5MS01OC4xODE4MTlxMzMuNTU5MjczLTExMy4wNTg5MDktOC44NDM2MzctMTU1LjUwODM2M3pNMzYzLjA1NDU0NSAxOTkuNjhjLTc0LjkzODE4Mi0yMi4yOTUyNzMtMTI3LjA2OTA5MS0xOS41NDkwOTEtMTU1LjUwODM2MyA4Ljg0MzYzNnYtMC40NjU0NTRjLTI4Ljk5NzgxOCAyOC4zOTI3MjctMzEuNzQ0IDgwLjUyMzYzNi04LjkzNjcyNyAxNTUuNTA4MzYzYTUwNy4zNDU0NTUgNTA3LjM0NTQ1NSAwIDAgMCAyMC40MzM0NTQgNTYuMjczNDU1QTk3Ni42NjMyNzMgOTc2LjY2MzI3MyAwIDAgMSA0MTguOTA5MDkxIDIyMC4yMDY1NDVhNTQxLjIzMDU0NSA1NDEuMjMwNTQ1IDAgMCAwLTU1Ljg1NDU0Ni0yMC41MjY1NDV6IG0wIDAiLz48L3N2Zz4=;" vertex="1" parent="1">
          <mxGeometry x="230" y="393.5" width="53" height="53" as="geometry" />
        </mxCell>
        <mxCell id="DURLl0zLTxqEiJGifbQc-4" style="edgeStyle=orthogonalEdgeStyle;rounded=0;orthogonalLoop=1;jettySize=auto;html=1;exitX=1;exitY=0.5;exitDx=0;exitDy=0;entryX=0;entryY=0.5;entryDx=0;entryDy=0;" edge="1" parent="1" source="DURLl0zLTxqEiJGifbQc-3" target="DURLl0zLTxqEiJGifbQc-2">
          <mxGeometry relative="1" as="geometry" />
        </mxCell>
        <mxCell id="DURLl0zLTxqEiJGifbQc-3" value="&lt;font style=&quot;font-size: 18px;&quot;&gt;交互信息&lt;/font&gt;" style="rounded=1;whiteSpace=wrap;html=1;" vertex="1" parent="1">
          <mxGeometry x="30" y="390" width="120" height="60" as="geometry" />
        </mxCell>
        <mxCell id="DURLl0zLTxqEiJGifbQc-6" value="" style="rounded=1;whiteSpace=wrap;html=1;" vertex="1" parent="1">
          <mxGeometry x="370" y="330" width="70" height="190" as="geometry" />
        </mxCell>
        <mxCell id="DURLl0zLTxqEiJGifbQc-7" value="事实一" style="rounded=1;whiteSpace=wrap;html=1;" vertex="1" parent="1">
          <mxGeometry x="380" y="340" width="50" height="36.5" as="geometry" />
        </mxCell>
        <mxCell id="DURLl0zLTxqEiJGifbQc-8" value="事实二" style="rounded=1;whiteSpace=wrap;html=1;" vertex="1" parent="1">
          <mxGeometry x="380" y="390" width="50" height="36.5" as="geometry" />
        </mxCell>
        <mxCell id="DURLl0zLTxqEiJGifbQc-9" value="事实三" style="rounded=1;whiteSpace=wrap;html=1;" vertex="1" parent="1">
          <mxGeometry x="380" y="470" width="50" height="36.5" as="geometry" />
        </mxCell>
      </root>
    </mxGraphModel>
  </diagram>
</mxfile>
